<?xml version="1.0" encoding="UTF-8" standalone="no"?>
<svg
   xmlns:dc="http://purl.org/dc/elements/1.1/"
   xmlns:cc="http://creativecommons.org/ns#"
   xmlns:rdf="http://www.w3.org/1999/02/22-rdf-syntax-ns#"
   xmlns:svg="http://www.w3.org/2000/svg"
   xmlns="http://www.w3.org/2000/svg"
   xmlns:sodipodi="http://sodipodi.sourceforge.net/DTD/sodipodi-0.dtd"
   xmlns:inkscape="http://www.inkscape.org/namespaces/inkscape"
   sodipodi:docname="icons_settings.svg"
   inkscape:version="1.0 (4035a4fb49, 2020-05-01)"
   id="svg14273"
   version="1.1"
   viewBox="0 0 4.2333332 4.2333335"
   height="16"
   width="16">
  <defs
     id="defs14267" />
  <sodipodi:namedview
     inkscape:window-maximized="0"
     inkscape:window-y="0"
     inkscape:window-x="0"
     inkscape:window-height="728"
     inkscape:window-width="1366"
     units="px"
     showgrid="false"
     inkscape:document-rotation="0"
     inkscape:current-layer="layer1"
     inkscape:document-units="mm"
     inkscape:cy="12.411112"
     inkscape:cx="4.5099739"
     inkscape:zoom="15.839192"
     inkscape:pageshadow="2"
     inkscape:pageopacity="0.0"
     borderopacity="1.0"
     bordercolor="#666666"
     pagecolor="#ffffff"
     id="base" />
  <metadata
     id="metadata14270">
    <rdf:RDF>
      <cc:Work
         rdf:about="">
        <dc:format>image/svg+xml</dc:format>
        <dc:type
           rdf:resource="http://purl.org/dc/dcmitype/StillImage" />
        <dc:title></dc:title>
      </cc:Work>
    </rdf:RDF>
  </metadata>
  <g
     id="layer1"
     inkscape:groupmode="layer"
     inkscape:label="Слой 1">
    <g
       transform="scale(0.17638889)"
       id="g14585"
       style="fill:none;stroke:currentColor;stroke-width:2;stroke-linecap:round;stroke-linejoin:round">
      <circle
         cx="12"
         cy="12"
         r="3"
         id="circle14571" />
      <path
         d="m 19.4,15 a 1.65,1.65 0 0 0 0.33,1.82 l 0.06,0.06 a 2,2 0 0 1 0,2.83 2,2 0 0 1 -2.83,0 L 16.9,19.65 a 1.65,1.65 0 0 0 -1.82,-0.33 1.65,1.65 0 0 0 -1,1.51 V 21 a 2,2 0 0 1 -2,2 2,2 0 0 1 -2,-2 V 20.91 A 1.65,1.65 0 0 0 9,19.4 1.65,1.65 0 0 0 7.18,19.73 l -0.06,0.06 a 2,2 0 0 1 -2.83,0 2,2 0 0 1 0,-2.83 L 4.35,16.9 a 1.65,1.65 0 0 0 0.33,-1.82 1.65,1.65 0 0 0 -1.51,-1 H 3 a 2,2 0 0 1 -2,-2 2,2 0 0 1 2,-2 H 3.09 A 1.65,1.65 0 0 0 4.6,9 1.65,1.65 0 0 0 4.27,7.18 L 4.21,7.12 a 2,2 0 0 1 0,-2.83 2,2 0 0 1 2.83,0 L 7.1,4.35 A 1.65,1.65 0 0 0 8.92,4.68 H 9 A 1.65,1.65 0 0 0 10,3.17 V 3 a 2,2 0 0 1 2,-2 2,2 0 0 1 2,2 v 0.09 a 1.65,1.65 0 0 0 1,1.51 1.65,1.65 0 0 0 1.82,-0.33 l 0.06,-0.06 a 2,2 0 0 1 2.83,0 2,2 0 0 1 0,2.83 L 19.65,7.1 A 1.65,1.65 0 0 0 19.32,8.92 V 9 a 1.65,1.65 0 0 0 1.51,1 H 21 a 2,2 0 0 1 2,2 2,2 0 0 1 -2,2 h -0.09 a 1.65,1.65 0 0 0 -1.51,1 z"
         id="path14573" />
    </g>
  </g>
</svg>
